<svg width="22" height="22" viewBox="0 0 22 22" fill="none" xmlns="http://www.w3.org/2000/svg">
<path d="M10.6393 2.14663C10.8462 1.96691 11.1538 1.96691 11.3607 2.14663L13.1466 3.69819C13.2592 3.79596 13.4066 3.84386 13.5551 3.83092L15.9121 3.62545C16.185 3.60165 16.4339 3.78248 16.4957 4.04948L17.0285 6.3545C17.0622 6.49974 17.1532 6.62513 17.281 6.70196L19.3086 7.92107C19.5434 8.06229 19.6385 8.35488 19.5314 8.60717L18.6078 10.7852C18.5496 10.9225 18.5496 11.0774 18.6078 11.2147L19.5314 13.3927C19.6385 13.645 19.5434 13.9376 19.3086 14.0788L17.281 15.2979C17.1532 15.3747 17.0622 15.5001 17.0285 15.6454L16.4957 17.9504C16.4339 18.2174 16.185 18.3983 15.9121 18.3744L13.5551 18.169C13.4066 18.156 13.2592 18.2039 13.1466 18.3017L11.3607 19.8533C11.1538 20.033 10.8462 20.033 10.6393 19.8533L8.85331 18.3017C8.74077 18.2039 8.59336 18.156 8.44485 18.169L6.08797 18.3744C5.81496 18.3983 5.56607 18.2174 5.50434 17.9504L4.97143 15.6454C4.93785 15.5001 4.84675 15.3747 4.71898 15.2979L2.69147 14.0788C2.4566 13.9376 2.36153 13.645 2.46854 13.3927L3.39226 11.2147C3.45046 11.0774 3.45046 10.9225 3.39226 10.7852L2.46854 8.60717C2.36153 8.35488 2.4566 8.06229 2.69147 7.92107L4.71898 6.70196C4.84675 6.62513 4.93785 6.49974 4.97143 6.3545L5.50434 4.04948C5.56607 3.78248 5.81496 3.60165 6.08797 3.62545L8.44485 3.83092C8.59336 3.84386 8.74077 3.79596 8.85331 3.69819L10.6393 2.14663Z" stroke="#BCBCBC" stroke-width="1.5"/>
<path d="M8.25 11.9166L10.0833 13.75L14.6667 9.16663" stroke="#BCBCBC" stroke-width="1.5" stroke-linecap="round" stroke-linejoin="round"/>
</svg>
