<svg width="16" height="16" viewBox="0 0 16 16" fill="none" xmlns="http://www.w3.org/2000/svg">
<path d="M6.53772 0C2.93478 0 0 2.93478 0 6.53772C0 10.1407 2.93478 13.0754 6.53772 13.0754C8.10449 13.0754 9.54336 12.5191 10.671 11.5955L14.5745 15.499C14.6348 15.5617 14.7069 15.6118 14.7868 15.6463C14.8666 15.6808 14.9525 15.6991 15.0395 15.7C15.1265 15.7009 15.2128 15.6844 15.2933 15.6515C15.3738 15.6186 15.447 15.57 15.5085 15.5085C15.57 15.447 15.6186 15.3738 15.6515 15.2933C15.6844 15.2128 15.7009 15.1265 15.7 15.0395C15.6991 14.9525 15.6808 14.8666 15.6463 14.7868C15.6118 14.7069 15.5617 14.6348 15.499 14.5745L11.5955 10.671C12.5191 9.54336 13.0754 8.10449 13.0754 6.53772C13.0754 2.93478 10.1407 0 6.53772 0ZM6.53772 1.30754C9.43401 1.30754 11.7679 3.64143 11.7679 6.53772C11.7679 9.43401 9.43401 11.7679 6.53772 11.7679C3.64143 11.7679 1.30754 9.43401 1.30754 6.53772C1.30754 3.64143 3.64143 1.30754 6.53772 1.30754Z" fill="#BCBCBC"/>
</svg>
