<svg width="20" height="20" viewBox="0 0 20 20" fill="none" xmlns="http://www.w3.org/2000/svg">
<path fill-rule="evenodd" clip-rule="evenodd" d="M9.3547 12.2004L12.8593 17.8862C13.0127 18.1353 13.2522 18.1325 13.349 18.1191C13.4458 18.1056 13.6787 18.0462 13.763 17.7635L18.1455 2.96206C18.2222 2.70043 18.0813 2.52218 18.018 2.45893C17.9567 2.39568 17.7813 2.26056 17.5274 2.33243L2.71536 6.66985C2.43457 6.75226 2.37324 6.98801 2.35982 7.08481C2.34641 7.18351 2.34257 7.42789 2.59078 7.5841L8.34174 11.1807L13.4228 6.04597C13.7017 5.76422 14.1569 5.76135 14.4396 6.04022C14.7223 6.3191 14.7242 6.77526 14.4454 7.05701L9.3547 12.2004ZM13.2743 19.5623C12.6073 19.5623 11.9959 19.2231 11.6355 18.6404L7.92007 12.6115L1.82891 8.80214C1.17245 8.39101 0.829365 7.65885 0.93574 6.88931C1.04116 6.11976 1.5692 5.50835 2.31095 5.29081L17.1229 0.95339C17.8043 0.754057 18.5346 0.942848 19.0367 1.4431C19.5389 1.94814 19.7258 2.68606 19.5226 3.37031L15.1402 18.1708C14.9207 18.9154 14.3074 19.4416 13.5397 19.5441C13.4497 19.5556 13.3624 19.5623 13.2743 19.5623Z" fill="#BCBCBC"/>
</svg>
