<svg width="28" height="28" viewBox="0 0 28 28" fill="none" xmlns="http://www.w3.org/2000/svg">
<path d="M28 20.4447C27.4774 21.847 26.6533 23.2492 25.5276 24.6514C23.799 26.8502 22.0771 27.9495 20.3618 27.9495C19.7052 27.9495 18.7672 27.77 17.5477 27.4111C16.3953 27.0521 15.3836 26.8726 14.5126 26.8726C13.6951 26.8726 12.7437 27.0577 11.6583 27.4279C10.5729 27.8093 9.68844 28 9.00503 28C6.96817 28 4.95142 26.5473 2.95477 23.6418C0.984925 20.7139 0 17.8926 0 15.1779C0 12.6202 0.757119 10.5224 2.27136 8.88462C3.77219 7.26923 5.67504 6.46154 7.9799 6.46154C8.94472 6.46154 10.1307 6.62981 11.5377 6.96635C12.9313 7.30288 13.8559 7.47115 14.3116 7.47115C14.9146 7.47115 15.8727 7.28045 17.1859 6.89904C18.5528 6.51763 19.7119 6.32692 20.6633 6.32692C22.258 6.32692 23.6851 6.69151 24.9447 7.42067C25.6415 7.82452 26.3384 8.38542 27.0352 9.10337C25.9765 9.85497 25.2127 10.5168 24.7437 11.0889C23.8727 12.1434 23.4372 13.3045 23.4372 14.5721C23.4372 15.9631 23.8995 17.2139 24.8241 18.3245C25.7487 19.4351 26.8074 20.1418 28 20.4447ZM20.4422 0.706731C20.4422 1.39103 20.2479 2.15385 19.8593 2.99519C19.4573 3.83654 18.8342 4.61058 17.9899 5.31731C17.2663 5.92308 16.5427 6.32692 15.8191 6.52885C15.3233 6.65224 14.6265 6.7476 13.7286 6.8149C13.7688 5.14343 14.2915 3.70192 15.2965 2.49038C16.2881 1.29006 17.9631 0.459936 20.3216 0C20.335 0.0336538 20.3518 0.0953526 20.3719 0.185096C20.392 0.27484 20.4087 0.336538 20.4221 0.370192C20.4221 0.415064 20.4255 0.471154 20.4322 0.538462C20.4389 0.605769 20.4422 0.661859 20.4422 0.706731Z" fill="#4D4D4D"/>
</svg>
