<svg width="19" height="20" viewBox="0 0 19 20" fill="none" xmlns="http://www.w3.org/2000/svg">
<path d="M17.4166 14.1V16.6C17.4175 16.8321 17.3724 17.0618 17.284 17.2745C17.1957 17.4871 17.0662 17.678 16.9037 17.8349C16.7412 17.9918 16.5494 18.1112 16.3406 18.1856C16.1317 18.26 15.9104 18.2876 15.6908 18.2667C13.2547 17.988 10.9147 17.1118 8.85872 15.7083C6.94591 14.4289 5.32419 12.7218 4.10872 10.7083C2.77078 8.53435 1.93816 6.05917 1.6783 3.48334C1.65852 3.2529 1.68454 3.02064 1.7547 2.80136C1.82486 2.58208 1.93763 2.38058 2.08582 2.20969C2.23402 2.0388 2.4144 1.90227 2.61547 1.80878C2.81654 1.71529 3.0339 1.66689 3.25372 1.66668H5.62872C6.01292 1.6627 6.38539 1.80591 6.6767 2.06962C6.96801 2.33333 7.15828 2.69955 7.21205 3.10001C7.31229 3.90006 7.4982 4.68562 7.76622 5.44168C7.87273 5.73995 7.89578 6.0641 7.83264 6.37574C7.7695 6.68738 7.62282 6.97344 7.40997 7.20001L6.40455 8.25834C7.53153 10.3446 9.17258 12.072 11.1546 13.2583L12.16 12.2C12.3752 11.976 12.647 11.8216 12.943 11.7551C13.2391 11.6886 13.547 11.7129 13.8304 11.825C14.5486 12.1071 15.2949 12.3028 16.055 12.4083C16.4395 12.4655 16.7907 12.6693 17.0418 12.9813C17.2929 13.2932 17.4263 13.6913 17.4166 14.1Z" stroke="white" stroke-width="1.2" stroke-linecap="round" stroke-linejoin="round"/>
</svg>
